<?xml version="1.0" encoding="UTF-8" standalone="no"?><svg width="100%" height="100%" viewBox="0 0 851 851" version="1.1" xmlns="http://www.w3.org/2000/svg" xmlns:xlink="http://www.w3.org/1999/xlink" xml:space="preserve" xmlns:serif="http://www.serif.com/" style="fill-rule:evenodd;clip-rule:evenodd;"><g id="Ebene-1" xmlns:www.serif.com="http://www.serif.com/" xmlns:www.serif.com="http://www.serif.com/" www.serif.com:id="Ebene 1"><path d="M129.496,424.659c0,-163.205 132.247,-295.706 295.138,-295.706c162.892,0 295.139,132.501 295.139,295.706c0,163.205 -132.247,295.706 -295.138,295.706c-162.892,0 -295.139,-132.501 -295.139,-295.706Z" style="fill:url(#_Linear1);"></path><path d="M144.462,424.66c0,-155.683 126.152,-282.077 281.537,-282.077c155.384,0 281.537,126.394 281.537,282.077c0,155.682 -126.152,282.076 -281.537,282.076c-155.384,0 -281.537,-126.394 -281.537,-282.076Z" style="fill:url(#_Linear2);"></path><path d="M425.998,706.738c155.488,0 281.533,-126.293 281.533,-282.08c0,-155.784 -126.045,-282.077 -281.533,-282.077c-155.487,0 -281.536,126.293 -281.536,282.077c0,155.787 126.049,282.08 281.536,282.08Z" style="fill:none;stroke:#fff;stroke-width:3px;"></path></g><defs><linearGradient id="_Linear1" x1="0" y1="0" x2="1" y2="0" gradientUnits="userSpaceOnUse" gradientTransform="matrix(274.454,340.134,-340.134,274.454,306.75,278.539)"><stop offset="0" style="stop-color:#005170;stop-opacity:1"></stop><stop offset="1" style="stop-color:#003749;stop-opacity:1"></stop></linearGradient><linearGradient id="_Linear2" x1="0" y1="0" x2="1" y2="0" gradientUnits="userSpaceOnUse" gradientTransform="matrix(261.85,324.514,-324.514,261.85,313.625,285.266)"><stop offset="0" style="stop-color:#00998c;stop-opacity:1"></stop><stop offset="1" style="stop-color:#008fc3;stop-opacity:1"></stop></linearGradient></defs></svg>