<?xml version="1.0" encoding="UTF-8" standalone="no"?><svg width="100%" height="100%" viewBox="0 0 851 851" version="1.1" xmlns="http://www.w3.org/2000/svg" xmlns:xlink="http://www.w3.org/1999/xlink" xml:space="preserve" xmlns:serif="http://www.serif.com/" style="fill-rule:evenodd;clip-rule:evenodd;"><g id="Ebene-1" xmlns:www.serif.com="http://www.serif.com/" xmlns:www.serif.com="http://www.serif.com/" www.serif.com:id="Ebene 1"><path d="M361.215,327.448c0,0 -117.559,-60.553 -239.286,233.266c0,0 64.909,-67.087 131.695,-61.237l91.414,85.243c10.495,66.216 -51.904,135.645 -51.904,135.645c284.6,-141.935 215.998,-254.977 215.998,-254.977c199.508,-213.943 165.93,-326.219 165.93,-326.219c0,0 -4.286,-0.96 -12.634,-0.96c-34.802,-0.002 -140.307,16.69 -301.213,189.239Z" style="fill:url(#_Linear1);fill-rule:nonzero;"></path><path d="M659.132,153.946l-1.605,0c0,0 -109.244,-15.736 -291.319,189.359c0,0 -101.964,-58.261 -218.493,182.077c0,0 26.4,-22.404 58.265,-36.415c88.694,-152.279 186.127,-118.163 186.127,-118.163c134.327,-149.135 243.57,-209.573 267.025,-216.858" style="fill:#3f6880;fill-rule:nonzero;"></path><path d="M546.06,329.966c34.633,6.105 67.78,-17.104 73.885,-51.738c6.11,-34.632 -17.103,-67.781 -51.734,-73.886c-34.635,-6.107 -67.78,17.103 -73.888,51.736c-6.107,34.635 17.1,67.78 51.737,73.888" style="fill:#fff;fill-rule:nonzero;"></path><path d="M546.06,329.966c34.667,6.113 67.775,-17.07 73.888,-51.737c6.113,-34.667 -17.07,-67.775 -51.737,-73.888c-34.667,-6.113 -67.776,17.07 -73.888,51.737c-6.113,34.667 17.069,67.775 51.737,73.888Z" style="fill:none;stroke:#525251;stroke-width:3px;"></path></g><defs><linearGradient id="_Linear1" x1="0" y1="0" x2="1" y2="0" gradientUnits="userSpaceOnUse" gradientTransform="matrix(236.671,216.869,-216.869,236.671,343.125,363.141)"><stop offset="0" style="stop-color:#005170;stop-opacity:1"></stop><stop offset="1" style="stop-color:#003749;stop-opacity:1"></stop></linearGradient></defs></svg>